%TF.GenerationSoftware,KiCad,Pcbnew,10.0.3*%
%TF.CreationDate,2026-06-01T22:11:37-05:00*%
%TF.ProjectId,marco-pad,6d617263-6f2d-4706-9164-2e6b69636164,rev?*%
%TF.SameCoordinates,Original*%
%TF.FileFunction,Copper,L2,Bot*%
%TF.FilePolarity,Positive*%
%FSLAX46Y46*%
G04 Gerber Fmt 4.6, Leading zero omitted, Abs format (unit mm)*
G04 Created by KiCad (PCBNEW 10.0.3) date 2026-06-01 22:11:37*
%MOMM*%
%LPD*%
G01*
G04 APERTURE LIST*
G04 Aperture macros list*
%AMRoundRect*
0 Rectangle with rounded corners*
0 $1 Rounding radius*
0 $2 $3 $4 $5 $6 $7 $8 $9 X,Y pos of 4 corners*
0 Add a 4 corners polygon primitive as box body*
4,1,4,$2,$3,$4,$5,$6,$7,$8,$9,$2,$3,0*
0 Add four circle primitives for the rounded corners*
1,1,$1+$1,$2,$3*
1,1,$1+$1,$4,$5*
1,1,$1+$1,$6,$7*
1,1,$1+$1,$8,$9*
0 Add four rect primitives between the rounded corners*
20,1,$1+$1,$2,$3,$4,$5,0*
20,1,$1+$1,$4,$5,$6,$7,0*
20,1,$1+$1,$6,$7,$8,$9,0*
20,1,$1+$1,$8,$9,$2,$3,0*%
G04 Aperture macros list end*
%TA.AperFunction,ComponentPad*%
%ADD10RoundRect,0.170000X0.680000X-0.680000X0.680000X0.680000X-0.680000X0.680000X-0.680000X-0.680000X0*%
%TD*%
%TA.AperFunction,ComponentPad*%
%ADD11C,1.700000*%
%TD*%
%TA.AperFunction,ComponentPad*%
%ADD12C,2.200000*%
%TD*%
%TA.AperFunction,ComponentPad*%
%ADD13RoundRect,0.250000X-0.550000X-0.550000X0.550000X-0.550000X0.550000X0.550000X-0.550000X0.550000X0*%
%TD*%
%TA.AperFunction,ComponentPad*%
%ADD14C,1.600000*%
%TD*%
%TA.AperFunction,ComponentPad*%
%ADD15R,3.500000X1.700000*%
%TD*%
%TA.AperFunction,ComponentPad*%
%ADD16O,3.600000X1.700000*%
%TD*%
%TA.AperFunction,ComponentPad*%
%ADD17O,3.700000X1.700000*%
%TD*%
%TA.AperFunction,Conductor*%
%ADD18C,0.200000*%
%TD*%
G04 APERTURE END LIST*
D10*
%TO.P,U3,1,GND_1*%
%TO.N,GND*%
X161050000Y-76860000D03*
D11*
%TO.P,U3,2,VCC_2*%
%TO.N,Net-(U1-3V3)*%
X161050000Y-74320000D03*
%TO.P,U3,3,SCL_3*%
%TO.N,Net-(U1-PA9_A5_D5_SCL)*%
X161050000Y-71780000D03*
%TO.P,U3,4,SDA_4*%
%TO.N,Net-(U1-PA8_A4_D4_SDA)*%
X161050000Y-69240000D03*
%TD*%
D12*
%TO.P,SW13,1,1_1*%
%TO.N,Net-(D13-A)*%
X193040000Y-90170000D03*
%TO.P,SW13,2,2_2*%
%TO.N,Net-(U1-PA6_A10_D10_MOSI)*%
X186690000Y-92710000D03*
%TD*%
D13*
%TO.P,D11,1,K_1*%
%TO.N,Net-(D11-K)*%
X166430000Y-141550000D03*
D14*
%TO.P,D11,2,A_2*%
%TO.N,Net-(D11-A)*%
X174050000Y-141550000D03*
%TD*%
D12*
%TO.P,SW2,1,1_1*%
%TO.N,Net-(D2-A)*%
X135890000Y-109220000D03*
%TO.P,SW2,2,2_2*%
%TO.N,Net-(U1-PB09_A7_D7_RX)*%
X129540000Y-111760000D03*
%TD*%
D13*
%TO.P,D1,1,K_1*%
%TO.N,Net-(D1-K)*%
X128240000Y-103550000D03*
D14*
%TO.P,D1,2,A_2*%
%TO.N,Net-(D1-A)*%
X135860000Y-103550000D03*
%TD*%
D12*
%TO.P,SW15,1,1_1*%
%TO.N,Net-(D15-A)*%
X193040000Y-128270000D03*
%TO.P,SW15,2,2_2*%
%TO.N,Net-(U1-PA6_A10_D10_MOSI)*%
X186690000Y-130810000D03*
%TD*%
D13*
%TO.P,D16,1,K_1*%
%TO.N,Net-(D12-K)*%
X185430000Y-160550000D03*
D14*
%TO.P,D16,2,A_2*%
%TO.N,Net-(D16-A)*%
X193050000Y-160550000D03*
%TD*%
D13*
%TO.P,D10,1,K_1*%
%TO.N,Net-(D10-K)*%
X166430000Y-122550000D03*
D14*
%TO.P,D10,2,A_2*%
%TO.N,Net-(D10-A)*%
X174050000Y-122550000D03*
%TD*%
D12*
%TO.P,SW12,1,1_1*%
%TO.N,Net-(D12-A)*%
X173990000Y-147320000D03*
%TO.P,SW12,2,2_2*%
%TO.N,Net-(U1-PA5_A9_D9_MISO)*%
X167640000Y-149860000D03*
%TD*%
%TO.P,SW14,1,1_1*%
%TO.N,Net-(D14-A)*%
X193040000Y-109220000D03*
%TO.P,SW14,2,2_2*%
%TO.N,Net-(U1-PA6_A10_D10_MOSI)*%
X186690000Y-111760000D03*
%TD*%
D13*
%TO.P,D4,1,K_1*%
%TO.N,Net-(D12-K)*%
X128240000Y-160550000D03*
D14*
%TO.P,D4,2,A_2*%
%TO.N,Net-(D4-A)*%
X135860000Y-160550000D03*
%TD*%
D12*
%TO.P,SW16,1,1_1*%
%TO.N,Net-(D16-A)*%
X193040000Y-147320000D03*
%TO.P,SW16,2,2_2*%
%TO.N,Net-(U1-PA6_A10_D10_MOSI)*%
X186690000Y-149860000D03*
%TD*%
D13*
%TO.P,D3,1,K_1*%
%TO.N,Net-(D11-K)*%
X128240000Y-142050000D03*
D14*
%TO.P,D3,2,A_2*%
%TO.N,Net-(D3-A)*%
X135860000Y-142050000D03*
%TD*%
D13*
%TO.P,D6,1,K_1*%
%TO.N,Net-(D10-K)*%
X147430000Y-123050000D03*
D14*
%TO.P,D6,2,A_2*%
%TO.N,Net-(D6-A)*%
X155050000Y-123050000D03*
%TD*%
D12*
%TO.P,SW11,1,1_1*%
%TO.N,Net-(D11-A)*%
X173990000Y-128270000D03*
%TO.P,SW11,2,2_2*%
%TO.N,Net-(U1-PA5_A9_D9_MISO)*%
X167640000Y-130810000D03*
%TD*%
D13*
%TO.P,D13,1,K_1*%
%TO.N,Net-(D1-K)*%
X185430000Y-103550000D03*
D14*
%TO.P,D13,2,A_2*%
%TO.N,Net-(D13-A)*%
X193050000Y-103550000D03*
%TD*%
D12*
%TO.P,SW4,1,1_1*%
%TO.N,Net-(D4-A)*%
X135890000Y-147320000D03*
%TO.P,SW4,2,2_2*%
%TO.N,Net-(U1-PB09_A7_D7_RX)*%
X129540000Y-149860000D03*
%TD*%
%TO.P,SW5,1,1_1*%
%TO.N,Net-(D5-A)*%
X154940000Y-90170000D03*
%TO.P,SW5,2,2_2*%
%TO.N,Net-(U1-PA7_A8_D8_SCK)*%
X148590000Y-92710000D03*
%TD*%
%TO.P,SW1,1,1_1*%
%TO.N,Net-(D1-A)*%
X135890000Y-90170000D03*
%TO.P,SW1,2,2_2*%
%TO.N,Net-(U1-PB09_A7_D7_RX)*%
X129540000Y-92710000D03*
%TD*%
D13*
%TO.P,D14,1,K_1*%
%TO.N,Net-(D10-K)*%
X185430000Y-122550000D03*
D14*
%TO.P,D14,2,A_2*%
%TO.N,Net-(D14-A)*%
X193050000Y-122550000D03*
%TD*%
D12*
%TO.P,SW8,1,1_1*%
%TO.N,Net-(D8-A)*%
X154940000Y-147320000D03*
%TO.P,SW8,2,2_2*%
%TO.N,Net-(U1-PA7_A8_D8_SCK)*%
X148590000Y-149860000D03*
%TD*%
%TO.P,SW6,1,1_1*%
%TO.N,Net-(D6-A)*%
X154940000Y-109220000D03*
%TO.P,SW6,2,2_2*%
%TO.N,Net-(U1-PA7_A8_D8_SCK)*%
X148590000Y-111760000D03*
%TD*%
D13*
%TO.P,D12,1,K_1*%
%TO.N,Net-(D12-K)*%
X166240000Y-160550000D03*
D14*
%TO.P,D12,2,A_2*%
%TO.N,Net-(D12-A)*%
X173860000Y-160550000D03*
%TD*%
D13*
%TO.P,D15,1,K_1*%
%TO.N,Net-(D11-K)*%
X185740000Y-141550000D03*
D14*
%TO.P,D15,2,A_2*%
%TO.N,Net-(D15-A)*%
X193360000Y-141550000D03*
%TD*%
D13*
%TO.P,D8,1,K_1*%
%TO.N,Net-(D12-K)*%
X147430000Y-161050000D03*
D14*
%TO.P,D8,2,A_2*%
%TO.N,Net-(D8-A)*%
X155050000Y-161050000D03*
%TD*%
D12*
%TO.P,SW10,1,1_1*%
%TO.N,Net-(D10-A)*%
X173990000Y-109220000D03*
%TO.P,SW10,2,2_2*%
%TO.N,Net-(U1-PA5_A9_D9_MISO)*%
X167640000Y-111760000D03*
%TD*%
D13*
%TO.P,D2,1,K_1*%
%TO.N,Net-(D10-K)*%
X128240000Y-122550000D03*
D14*
%TO.P,D2,2,A_2*%
%TO.N,Net-(D2-A)*%
X135860000Y-122550000D03*
%TD*%
D13*
%TO.P,D5,1,K_1*%
%TO.N,Net-(D1-K)*%
X147430000Y-103550000D03*
D14*
%TO.P,D5,2,A_2*%
%TO.N,Net-(D5-A)*%
X155050000Y-103550000D03*
%TD*%
D12*
%TO.P,SW3,1,1_1*%
%TO.N,Net-(D3-A)*%
X135890000Y-128270000D03*
%TO.P,SW3,2,2_2*%
%TO.N,Net-(U1-PB09_A7_D7_RX)*%
X129540000Y-130810000D03*
%TD*%
%TO.P,SW9,1,1_1*%
%TO.N,Net-(D9-A)*%
X173990000Y-90170000D03*
%TO.P,SW9,2,2_2*%
%TO.N,Net-(U1-PA5_A9_D9_MISO)*%
X167640000Y-92710000D03*
%TD*%
%TO.P,SW7,1,1_1*%
%TO.N,Net-(D7-A)*%
X154940000Y-128270000D03*
%TO.P,SW7,2,2_2*%
%TO.N,Net-(U1-PA7_A8_D8_SCK)*%
X148590000Y-130810000D03*
%TD*%
D13*
%TO.P,D9,1,K_1*%
%TO.N,Net-(D1-K)*%
X166430000Y-103550000D03*
D14*
%TO.P,D9,2,A_2*%
%TO.N,Net-(D9-A)*%
X174050000Y-103550000D03*
%TD*%
D13*
%TO.P,D7,1,K_1*%
%TO.N,Net-(D11-K)*%
X147430000Y-141550000D03*
D14*
%TO.P,D7,2,A_2*%
%TO.N,Net-(D7-A)*%
X155050000Y-141550000D03*
%TD*%
D15*
%TO.P,U1,1,PA02_A0_D0_1*%
%TO.N,Net-(D1-K)*%
X142050000Y-67010000D03*
D16*
%TO.P,U1,2,PA4_A1_D1_2*%
%TO.N,unconnected-(U1-PA4_A1_D1-Pad2)*%
X142050000Y-69550000D03*
%TO.P,U1,3,PA10_A2_D2_3*%
%TO.N,Net-(D10-K)*%
X142050000Y-72090000D03*
%TO.P,U1,4,PA11_A3_D3_4*%
%TO.N,Net-(D11-K)*%
X142050000Y-74630000D03*
%TO.P,U1,5,PA8_A4_D4_SDA_5*%
%TO.N,Net-(U1-PA8_A4_D4_SDA)*%
X142050000Y-77170000D03*
%TO.P,U1,6,PA9_A5_D5_SCL_6*%
%TO.N,Net-(U1-PA9_A5_D5_SCL)*%
X142050000Y-79710000D03*
%TO.P,U1,7,PB08_A6_D6_TX_7*%
%TO.N,Net-(D12-K)*%
X142050000Y-82250000D03*
%TO.P,U1,8,PB09_A7_D7_RX_8*%
%TO.N,Net-(U1-PB09_A7_D7_RX)*%
X124800000Y-82250000D03*
%TO.P,U1,9,PA7_A8_D8_SCK_9*%
%TO.N,Net-(U1-PA7_A8_D8_SCK)*%
X124800000Y-79710000D03*
%TO.P,U1,10,PA5_A9_D9_MISO_10*%
%TO.N,Net-(U1-PA5_A9_D9_MISO)*%
X124800000Y-77170000D03*
D17*
%TO.P,U1,11,PA6_A10_D10_MOSI_11*%
%TO.N,Net-(U1-PA6_A10_D10_MOSI)*%
X124800000Y-74630000D03*
%TO.P,U1,12,3V3_12*%
%TO.N,Net-(U1-3V3)*%
X124800000Y-72090000D03*
%TO.P,U1,13,GND_13*%
%TO.N,GND*%
X124800000Y-69550000D03*
%TO.P,U1,14,5V_14*%
%TO.N,unconnected-(U1-5V-Pad14)*%
X124800000Y-67010000D03*
%TD*%
%TO.N,GND*%
D18*
X143476346Y-73480000D02*
X129730000Y-73480000D01*
X162200000Y-68763654D02*
X161526346Y-68090000D01*
X148866346Y-68090000D02*
X143476346Y-73480000D01*
X129730000Y-73480000D02*
X125800000Y-69550000D01*
X161050000Y-76860000D02*
X162200000Y-75710000D01*
X162200000Y-75710000D02*
X162200000Y-68763654D01*
X161526346Y-68090000D02*
X148866346Y-68090000D01*
%TO.N,Net-(U1-3V3)*%
X134570000Y-80860000D02*
X125800000Y-72090000D01*
X161050000Y-74320000D02*
X154510000Y-80860000D01*
X154510000Y-80860000D02*
X134570000Y-80860000D01*
%TO.N,Net-(U1-PA9_A5_D5_SCL)*%
X153120000Y-79710000D02*
X141050000Y-79710000D01*
X161050000Y-71780000D02*
X153120000Y-79710000D01*
%TO.N,Net-(U1-PA8_A4_D4_SDA)*%
X161050000Y-69240000D02*
X153120000Y-77170000D01*
X153120000Y-77170000D02*
X141050000Y-77170000D01*
%TO.N,Net-(D11-K)*%
X184640000Y-142650000D02*
X185740000Y-141550000D01*
X148530000Y-140450000D02*
X165330000Y-140450000D01*
X166430000Y-141550000D02*
X167530000Y-142650000D01*
X167530000Y-142650000D02*
X184640000Y-142650000D01*
X165330000Y-140450000D02*
X166430000Y-141550000D01*
X128240000Y-142050000D02*
X129340000Y-143150000D01*
X145830000Y-143150000D02*
X147430000Y-141550000D01*
X147430000Y-141550000D02*
X148530000Y-140450000D01*
X129340000Y-143150000D02*
X145830000Y-143150000D01*
%TO.N,Net-(D1-K)*%
X147430000Y-103550000D02*
X139950000Y-96070000D01*
X166430000Y-103550000D02*
X167530000Y-104650000D01*
X123323654Y-73240000D02*
X122650000Y-72566346D01*
X146330000Y-104650000D02*
X147430000Y-103550000D01*
X122650000Y-72566346D02*
X122650000Y-69073654D01*
X128240000Y-103550000D02*
X129340000Y-104650000D01*
X129340000Y-104650000D02*
X146330000Y-104650000D01*
X139950000Y-86913654D02*
X126276346Y-73240000D01*
X184330000Y-104650000D02*
X185430000Y-103550000D01*
X139660000Y-68400000D02*
X141050000Y-67010000D01*
X167530000Y-104650000D02*
X184330000Y-104650000D01*
X148530000Y-102450000D02*
X165330000Y-102450000D01*
X122650000Y-69073654D02*
X123323654Y-68400000D01*
X165330000Y-102450000D02*
X166430000Y-103550000D01*
X123323654Y-68400000D02*
X139660000Y-68400000D01*
X139950000Y-96070000D02*
X139950000Y-86913654D01*
X147430000Y-103550000D02*
X148530000Y-102450000D01*
X126276346Y-73240000D02*
X123323654Y-73240000D01*
%TO.N,Net-(D12-K)*%
X166240000Y-160550000D02*
X165640000Y-159950000D01*
X148530000Y-159950000D02*
X147430000Y-161050000D01*
X145430000Y-163050000D02*
X130740000Y-163050000D01*
X185430000Y-160550000D02*
X184330000Y-161650000D01*
X130740000Y-163050000D02*
X128240000Y-160550000D01*
X165640000Y-159950000D02*
X148530000Y-159950000D01*
X167340000Y-161650000D02*
X166240000Y-160550000D01*
X184330000Y-161650000D02*
X167340000Y-161650000D01*
X147430000Y-161050000D02*
X145430000Y-163050000D01*
%TO.N,Net-(D10-K)*%
X184330000Y-123650000D02*
X167530000Y-123650000D01*
X147430000Y-123050000D02*
X146830000Y-123650000D01*
X185430000Y-122550000D02*
X184330000Y-123650000D01*
X148530000Y-121950000D02*
X147430000Y-123050000D01*
X146830000Y-123650000D02*
X129340000Y-123650000D01*
X166430000Y-122550000D02*
X165830000Y-121950000D01*
X167530000Y-123650000D02*
X166430000Y-122550000D01*
X129340000Y-123650000D02*
X128240000Y-122550000D01*
X165830000Y-121950000D02*
X148530000Y-121950000D01*
%TD*%
M02*
